<svg xmlns="http://www.w3.org/2000/svg" width="256" height="256"><circle cx="128" cy="128" r="127" fill="#26a3d4" class="color26A3D4 svgShape"/><path fill="#d3aa6f" d="M103.2 146.9c-.6 1.9-.7 3.8-.8 5.8-.2 3.3-.4 6.7.6 9.8.5 1.6 1.4 3.1 2.4 4.5s2.2 2.8 3.7 3.8c4.2 3.2 9.9 3.5 15.2 3.8l12.6.6c2.5.1 5.2.2 7.4-1.1s3.5-3.7 5-5.8c2-2.9 4.5-5.3 6.5-8.2 2-2.8 3.6-6.2 3.3-9.7-.3-3.1-2-5.8-3-8.7-2.1-6-1.4-12.6-.6-18.9-15.9 2.2-31.9 3.9-48 5.2-.7.1-1.6.1-2-.6-.3-.4-.2-1-.3-1.5-.2-1.3-1.8-2.3-3.1-1.9 1.9 5.2 2.8 10.8 2.6 16.3 0 1-.1 2-.4 2.9-.3 1.4-.8 2.5-1.1 3.7z" class="colorD3AA6F svgShape"/><path fill="#3c698a" d="M120.3 183.7c-2.8 3.3-5.5 7-6.9 10.3-1.2 2.7-2 4.5-2.5 5.5 2.4 8.9 5.3 19.2 8.9 31.2l6.5-40.3-6-6.7zm20.1-.5-5.9 7.3 7.4 38.5c3.3-11.3 6.1-21 8.3-29.4-.5-1.1-1.3-2.8-2.5-5.5-1.5-3.6-4.3-7.5-7.3-10.9z" class="color3C698A svgShape"/><path fill="#b31f24" d="m134.5 190.5 5.9-7.3c-4.8-5.6-9.8-10-9.8-10s-5.4 4.7-10.3 10.6l6 6.8h8.2z" class="colorB31F24 svgShape"/><path fill="#1f1e24" d="M130.8 173h-.5c.1.1.2.1.2.2.2-.1.3-.2.3-.2z" class="color1F1E24 svgShape"/><path fill="#79acc8" d="M111 199.6c.5-1.1 1.3-2.8 2.5-5.5 1.5-3.3 4.1-7 6.9-10.3 4.9-5.8 10.3-10.6 10.3-10.6-.1-.1-.2-.1-.2-.2-31.1-20.2-26.5-28.3-26.5-28.3-1 .3-1.8.9-2.5 1.9-.5 1.5-1.8 10.7 9.5 53z" class="color79ACC8 svgShape"/><path fill="#79acc8" d="M140.4 183.2c3 3.5 5.8 7.3 7.4 10.9 1.2 2.7 2 4.5 2.5 5.5 11.2-42.3 10-51.5 9.6-53-.7-1-1.5-1.6-2.5-1.9 0 0 4.6 8-26.5 28.3-.1.1-.2.1-.2.2-.1 0 4.9 4.4 9.7 10z" class="color79ACC8 svgShape"/><path fill="#d3aa6f" d="M163.6 114.4c-.8-.6-.9-1.7-.7-2.7.3-2.3 1.4-4.4 2.1-6.6 1-3.4.9-7.1 1.5-10.6s2.2-7.2 5.5-8.7c.7-.3 1.5-.6 2.2-.3.8.3 1.4 1.1 1.6 2s0 1.7-.1 2.6c-.7 4.4-1.5 8.8-2.2 13.2-.4 2.5-.9 5.1-2.1 7.4-1.3 2.2-3.6 4.1-6.1 4.1-.7 0-1.3-.1-1.7-.4zm-72.3-3c1.1 1.3 2.6 2.5 4.3 2.1 1.2-.3 2-1.3 2.4-2.4.3-1.1.3-2.3.1-3.5-1.1-7.2-5.6-13.6-6.5-20.8-1.3-.5-2.7-.6-4.1-.5-.3 0-.6.1-.7.2-.2.2-.2.5-.2.8-.3 4.2-.5 8.4.1 12.6s1.9 8.3 4.6 11.5z" class="colorD3AA6F svgShape"/><path fill="#eec98f" d="M160.1 45.8c-8.4-5.8-20.8-8.9-30.8-10.5-12.3-1.9-22.3 3-32.8 8.8-.5.3-.9.5-1.4.6-4.1 11.2-6.4 24.6-6.4 38.9 0 39.6 18 71.7 40.1 71.7s40.1-32.1 40.1-71.7c0-13.3-2-25.8-5.6-36.5-1.1-.1-2.2-.5-3.2-1.3z" class="colorEEC98F svgShape"/><path fill="#3a3434" d="m93.1 91.7-1.2-16.2c-.3-3.6-.5-7.4.6-10.8 1-3.2 3.1-5.9 5.1-8.5 2.2-2.8 5.3-6 8.8-5 1.4.4 2.4 1.4 3.7 2.1 3 1.7 6.7 1.7 10.2 1.6 4.1-.1 8.3-.3 12.1-1.8 3.3-1.3 6.1-3.6 9.4-4.7 4.9-1.6 10.5-.4 14.3 3.1 5.6 5.2 6.1 13.7 6.1 21.4 0 7.6 0 16 5 21.8 3.7-7.6 6.9-9.4 8.7-17.6 1.4-6.3 1.7-18-1.6-23.6-3.2-5.6-7.8-10.3-12.3-14.9-2.3-2.4-4.7-4.8-7.5-6.6-2.2-1.4-4.7-2.5-7.2-3.3-8.3-2.9-17.2-3.9-26-3.1-13.5 1.3-27.3 7.7-34 19.6-3.6 6.2-4.9 13.5-5.9 20.6-.6 4.2-1.1 8.4-.3 12.6.8 4.1 3.1 8.2 6.8 10.2 1.9.5 4.3 1.2 5.2 3.1z" class="color3A3434 svgShape"/><path fill="#3a3434" d="M87.8 80.6c.1-.1.3-.1.4-.1.1 0 .2.2.3.3 1.6 2.3 2.9 4.8 3.9 7.5.3.9.6 1.9.7 2.9v1.2c-.1 1.4-.1 2.7-.2 4.1v.2c-.1.1-.1.1-.2.1-.8.1-1.6.2-2.4.2-.4-2.1-.7-4.3-1.1-6.4-.1-.7-.2-1.3-.6-1.9-.5-.6-1.3-.9-1.9-1.5-1-1-1.1-2.5-1.1-3.9 0-.5 0-1 .3-1.3.2-.4.7-.7 1.1-.9.2-.2.5-.4.8-.5zm75.9 5.4c.3-.3.7-.4 1-.6 2.3-.7 4.8-.6 7 0-.3 1.2-.9 2.2-1.5 3.3-1.4 2.7-2.1 5.7-2.2 8.7 0 .3 0 .7-.3.8-.1.1-.3.1-.4.1-.8 0-1.6 0-2.4.1.1-2.4.3-4.8-.3-7.1-.1-.5-.3-1.1-.5-1.6-.2-.6-.4-1.1-.5-1.7-.1-.6-.3-1.4.1-2z" class="color3A3434 svgShape"/><path fill="#b31f24" d="M128 255c2 0 4-.1 6-.1 3-9.4 5.6-18 7.9-25.9l-7.4-38.5h-8.3l-6.5 40.3c2.2 7.4 4.7 15.4 7.4 24.2h.9z" class="colorB31F24 svgShape"/><path fill="#30383a" d="M108.4 253.5c-11-21.3-19.7-42.1-19.7-42.1l10-15.3-12.1 1.4s-2.8-4.6-2.8-19.6c0-7.1 4-14.6 8.3-20.5-12.2 4.1-52.4 17.9-56.6 24.8-1.6 2.7-4.6 11.7-7.9 23.2 19.2 25.3 47.9 43 80.8 48.1z" class="color30383A svgShape"/><path fill="#484d51" d="m86.5 197.6 12.1-1.4-10 15.3s8.7 20.8 19.7 42.1c6.2 1 12.5 1.5 18.9 1.5-2.7-8.7-5.2-16.8-7.4-24.2-3.6-12-6.5-22.4-8.9-31.2-11.2-42.3-10-51.5-9.6-53 0-.2.1-.2.1-.2s-4.9 4.6-9.5 11.1c-4.2 5.9-8.3 13.4-8.3 20.5.1 14.8 2.9 19.5 2.9 19.5z" class="color484D51 svgShape"/><path fill="#30383a" d="m174.7 197.6-12.1-1.4 10 15.3s-8.4 20.1-19.2 41c32.6-6.6 60.6-25.7 79-52-2.7-9.1-5.1-15.9-6.5-18.2-4.2-6.9-44.4-20.8-56.6-24.8 4.2 5.9 8.3 13.4 8.3 20.5-.1 14.9-2.9 19.6-2.9 19.6z" class="color30383A svgShape"/><path fill="#484d51" d="M153.4 252.5c10.8-20.9 19.2-41 19.2-41l-10-15.3 12.1 1.4s2.8-4.6 2.8-19.6c0-7.1-4-14.6-8.3-20.5-4.6-6.5-9.5-11.1-9.5-11.1s0 .1.1.2c.4 1.5 1.6 10.7-9.6 53-2.2 8.4-5 18.2-8.3 29.4-2.3 7.9-5 16.5-7.9 25.9 6.6-.4 13.1-1.2 19.4-2.4z" class="color484D51 svgShape"/></svg>